# AST/ASF file generated using VICON BodyLanguage
# -----------------------------------------------
:version 1.10
:name VICON
:units
  mass 1.0
  length 0.45
  angle deg
:documentation
   .ast/.asf automatically generated from VICON data using
   VICON BodyBuilder and BodyLanguage model FoxedUp or BRILLIANT.MOD
:root
   order TX TY TZ RX RY RZ
   axis XYZ
   position 0 0 0  
   orientation 0 0 0 
:bonedata
  begin
     id 1 
     name lhipjoint
     direction 0.535335 -0.74333 0.401095 
     length 2.04549 
     axis 0 0 0  XYZ
  end
  begin
     id 2 
     name lfemur
     direction 0.34202 -0.939693 0  
     length 6.95643  
     axis 0 0 20  XYZ
    dof rx ry rz
    limits (-160.0 20.0)
           (-70.0 70.0)
           (-60.0 70.0)
  end
  begin
     id 3 
     name ltibia
     direction 0.34192 -0.939729 0   
     length 5.55969   
     axis 0 0 20   XYZ
    dof rx
    limits (-10.0 170.0)
  end
  begin
     id 4 
     name lfoot
     direction 0.216943 -0.596046 0.773088   
     length 2.27918   
     axis -90 7.62852e-016 20   XYZ
    dof rx rz
    limits (-45.0 90.0)
           (-70.0 20.0)
  end
  begin
     id 5 
     name ltoes
     direction 1.53519e-011 -4.21748e-011 1   
     length 1.05562   
     axis -90 7.62852e-016 20   XYZ
    dof rx
    limits (-90.0 20.0)
  end
  begin
     id 6 
     name rhipjoint
     direction -0.576368 -0.719173 0.38806   
     length 2.1142  
     axis 0 0 0  XYZ 
  end
  begin
     id 7 
     name rfemur
     direction -0.34202 -0.939693 0   
     length 7.07928   
     axis 0 0 -20   XYZ
    dof rx ry rz
    limits (-160.0 20.0)
           (-70.0 70.0)
           (-70.0 60.0)
  end
  begin
     id 8 
     name rtibia
     direction -0.34202 -0.939693 0   
     length 5.79974   
     axis 0 0 -20   XYZ
    dof rx
    limits (-10.0 170.0)
 end
 begin
     id 9 
     name rfoot
     direction -0.189288 -0.520065 0.832888   
     length 2.42173  
     axis -90 -7.62852e-016 -20   XYZ
    dof rx rz
    limits (-45.0 90.0)
           (-20.0 70.0)
  end
  begin
     id 10 
     name rtoes
     direction -1.53574e-011 -4.21658e-011 1   
     length 1.14469   
     axis -90 -7.62852e-016 -20   XYZ
    dof rx
    limits (-90.0 20.0)
  end
  begin
     id 11 
     name lowerback
     direction -0.00135702 0.993803 0.111144   
     length 1.91308   
     axis 0 0 0   XYZ
    dof rx ry rz
    limits (-20.0 45.0)
           (-30.0 30.0)
           (-30.0 30.0)
  end
  begin
     id 12 
     name upperback
     direction -0.0056745 0.999813 0.0184631   
     length 1.9212   
     axis 0 0 0   XYZ
    dof rx ry rz
    limits (-20.0 45.0)
           (-30.0 30.0)
           (-30.0 30.0)
  end
  begin
     id 13 
     name thorax
     direction -0.00733434 0.999426 -0.0330788   
     length 1.94196   
     axis 0 0 0   XYZ
    dof rx ry rz
    limits (-20.0 45.0)
           (-30.0 30.0)
           (-30.0 30.0)
  end
  begin
     id 14 
     name lowerneck
     direction 0.0563074 0.996944 -0.0541571   
     length 2.34257   
     axis 0 0 0   XYZ
    dof rx ry rz
    limits (-20.0 45.0)
           (-30.0 30.0)
           (-30.0 30.0)
  end
  begin
     id 15 
     name upperneck
     direction -0.0544519 0.976166 -0.210085   
     length 2.32506   
     axis 0 0 0   XYZ
    dof rx ry rz
    limits (-20.0 45.0)
           (-30.0 30.0)
           (-30.0 30.0)
  end
  begin
     id 16
     name head
     direction -0.0226035 0.997615 -0.0652205  
     length 2.3648  
     axis 0 0 0   XYZ
    dof rx ry rz
    limits (-20.0 45.0)
           (-30.0 30.0)
           (-30.0 30.0)
  end
  begin
     id 17 
     name lclavicle
     direction 0.92109 0.381297 -0.0787716  
     length 4.0487  
     axis 0 0 0   XYZ
    dof ry rz
    limits (-20.0 10.0)
           (0.0 20.0)
  end
  begin
     id 18 
     name lhumerus
     direction 1 -4.48986e-011 3.56724e-027   
     length 4.94991   
     axis 180 -30 -90   XYZ
    dof rx ry rz
    limits (-60.0 90.0)
           (-90.0 90.0)
           (-90.0 90.0)
  end
  begin
     id 19
     name lradius
     direction 1 -4.48981e-011 8.62147e-027   
     length 2.7606   
     axis 180 -30 -90   XYZ
    dof rx
    limits (-10.0 170.0)
  end
  begin
     id 20
     name lwrist
     direction 1 -4.48989e-011 1.59799e-026   
     length 1.3803   
     axis -1.17785e-014 90 90   XYZ
    dof ry
    limits (-180.0 0.0)
 end
  begin
     id 21 
     name lhand
     direction 1 -4.48896e-011 3.19599e-026   
     length 0.843936   
     axis -2.03931e-014 90 90   XYZ
    dof rx rz
    limits (-90.0 90.0)
           (-45.0 45.0)
  end
  begin
     id 22 
     name lfingers
     direction 1 -4.48887e-011 6.39197e-026   
     length 0.680403   
     axis -4.07862e-014 90 90   XYZ
    dof rx
    limits (0.0 90.0)
  end
  begin
     id 23
     name lthumb
     direction 0.707107 -6.348e-011 0.707107   
     length 0.976926   
     axis -90 45 2.85299e-015   XYZ
    dof rx rz
    limits (-45.0 45.0)
           (-45.0 45.0)
  end
  begin
     id 24 
     name rclavicle
     direction -0.951104 0.307692 -0.026953   
     length 4.21801  
     axis 0 0 0   XYZ 
    dof ry rz
    limits (-10.0 20.0)
           (-20.0 0.0)
  end
  begin
     id 25 
     name rhumerus
     direction -1 -4.4896e-011 -1.8171e-018  
     length 4.32982   
     axis 180 30 90   XYZ
    dof rx ry rz
    limits (-90.0 60.0)
           (-90.0 90.0)
           (-90.0 90.0)
  end
  begin
     id 26 
     name rradius
     direction -1 -4.48959e-011 8.25165e-027   
     length 3.20057   
     axis 180 30 90   XYZ
    dof rx
    limits (-10.0 170.0)
  end
  begin
     id 27 
     name rwrist
     direction -1 -4.48997e-011 1.59799e-026   
     length 1.60029   
     axis -1.17785e-014 -90 -90   XYZ
    dof ry
    limits (-180.0 0.0)
  end
  begin
     id 28
     name rhand
     direction -1 -4.49023e-011 3.19599e-026   
     length 0.960433   
     axis -2.03931e-014 -90 -90   XYZ
    dof rx rz
    limits (-90.0 90.0)
           (-45.0 45.0)
  end
  begin
     id 29
     name rfingers
     direction -1 -4.48802e-011 6.39197e-026   
     length 0.774326   
     axis -4.07862e-014 -90 -90   XYZ
    dof rx
    limits (0.0 90.0)
  end
  begin
     id 30
     name rthumb
     direction -0.707107 -6.34876e-011 0.707107   
     length 1.11178   
     axis -90 -45 -2.85299e-015   XYZ
    dof rx rz
    limits (-45.0 45.0)
           (-45.0 45.0)
  end
:hierarchy
  begin
    root lhipjoint rhipjoint lowerback
    lhipjoint lfemur
    lfemur ltibia
    ltibia lfoot
    lfoot ltoes
    rhipjoint rfemur
    rfemur rtibia
    rtibia rfoot
    rfoot rtoes
    lowerback upperback
    upperback thorax
    thorax lowerneck lclavicle rclavicle
    lowerneck upperneck
    upperneck head
    lclavicle lhumerus
    lhumerus lradius
    lradius lwrist
    lwrist lhand lthumb
    lhand lfingers
    rclavicle rhumerus
    rhumerus rradius
    rradius rwrist
    rwrist rhand rthumb
    rhand rfingers
end

#!OML:ASF C:\KaitlinTest1\Natural Motions\Nikki\Session 2\Nikki.ASF
:FULLY-SPECIFIED
:DEGREES
555
root -13.8372 16.7357 5.01271 -321.178 93.0494 -330.529
lowerback -11.629 -1.26684 2.16733
upperback -4.88069 -1.69181 -0.705742
thorax 1.33102 -0.790594 -2.16059
lowerneck -8.88882 -13.298 -8.08431
upperneck 5.12746 40.7672 5.63739
head 165.891 58.8835 -38.9255
rclavicle -3.23025e-015 -3.18055e-015
rhumerus -37.949 -27.854 -80.0722
rradius 16.5158
rwrist 23.0887
rhand -36.6537 0.856178
rfingers 7.12502
rthumb -9.7405 -28.8986
lclavicle -3.23025e-015 -3.18055e-015
lhumerus -39.9464 17.8785 79.8514
lradius 19.9436
lwrist -42.0065
lhand -32.4662 2.83759
lfingers 7.12502
lthumb -5.69888 32.741
rfemur -8.88395 -18.6679 21.16
rtibia 11.5837
rfoot -9.61325 12.6817
rtoes 2.8625e-014
lfemur -15.3986 19.7114 -18.9757
ltibia 14.7618
lfoot -2.03895 -20.2213
ltoes 2.70347e-014
556
root -13.8367 16.7374 5.0122 -321.136 93.0501 -330.502
lowerback -11.6968 -1.26235 2.18053
upperback -4.82896 -1.69073 -0.711691
thorax 1.42115 -0.78927 -2.17671
lowerneck -8.94664 -13.3166 -8.06429
upperneck 5.09425 40.6969 5.6087
head 165.776 58.9641 -39.0037
rclavicle 1.13307e-014 4.77083e-015
rhumerus -37.8817 -27.9044 -80.0858
rradius 16.4507
rwrist 23.1912
rhand -36.6362 0.858508
rfingers 7.12502
rthumb -9.72362 -28.897
lclavicle 1.13307e-014 4.77083e-015
lhumerus -39.8619 17.8523 79.8816
lradius 19.9624
lwrist -41.8357
lhand -32.4314 2.73
lfingers 7.12502
lthumb -5.66525 32.6343
rfemur -8.88069 -18.6718 21.1634
rtibia 11.55
rfoot -9.59144 12.6678
rtoes -1.51076e-014
lfemur -15.4167 19.6629 -18.975
ltibia 14.7669
lfoot -2.0491 -20.1502
ltoes -7.79236e-014
557
root -13.836 16.7376 5.01236 -321.309 93.0438 -330.688
lowerback -11.7126 -1.26676 2.15448
upperback -4.81704 -1.69452 -0.713387
thorax 1.44278 -0.790641 -2.16489
lowerneck -8.94664 -13.3248 -8.05155
upperneck 5.08707 40.655 5.59679
head 165.692 59.025 -39.0564
rclavicle 1.76918e-014 1.19271e-015
rhumerus -37.918 -28.0265 -80.0116
rradius 16.4169
rwrist 23.4157
rhand -36.5663 0.802806
rfingers 7.12502
rthumb -9.65625 -28.9559
lclavicle 1.76918e-014 1.19271e-015
lhumerus -39.8309 17.927 79.8338
lradius 19.8773
lwrist -41.708
lhand -32.5145 2.66837
lfingers 7.12502
lthumb -5.74544 32.5705
rfemur -8.88602 -18.6327 21.1515
rtibia 11.544
rfoot -9.59981 12.6347
rtoes 1.32788e-013
lfemur -15.4313 19.6869 -18.9992
ltibia 14.7674
lfoot -2.0554 -20.1938
ltoes 6.36111e-014
558
root -13.8358 16.7367 5.01189 -320.866 93.0654 -330.25
lowerback -11.7147 -1.25972 2.18423
upperback -4.80284 -1.68945 -0.707134
thorax 1.45819 -0.788331 -2.1748
lowerneck -8.95729 -13.3214 -8.0669
upperneck 5.08822 40.6818 5.59911
head 165.731 58.9972 -39.0363
rclavicle -1.37161e-014 -5.56597e-015
rhumerus -37.9586 -28.1884 -79.9265
rradius 16.3665
rwrist 23.587
rhand -36.6162 0.891174
rfingers 7.12502
rthumb -9.70433 -28.8653
lclavicle -1.37161e-014 -5.56597e-015
lhumerus -39.8201 17.9599 79.8035
lradius 19.824
lwrist -41.7775
lhand -32.647 2.68375
lfingers 7.12502
lthumb -5.87344 32.5823
rfemur -8.89676 -18.6726 21.1913
rtibia 11.5431
rfoot -9.5738 12.6558
rtoes -1.59028e-014
lfemur -15.4397 19.701 -18.9716
ltibia 14.7677
lfoot -2.05076 -20.2194
ltoes -3.33958e-014
559
root -13.8361 16.7366 5.01118 -321.262 93.0584 -330.635
lowerback -11.6522 -1.25937 2.16737
upperback -4.82729 -1.68497 -0.717005
thorax 1.39932 -0.786844 -2.17295
lowerneck -8.90165 -13.3225 -8.07872
upperneck 5.11617 40.7096 5.60899
head 165.723 58.9698 -39.035
rclavicle 5.01931e-015 5.56597e-015
rhumerus -38.0592 -28.3253 -79.8072
rradius 16.2963
rwrist 23.7987
rhand -36.6554 0.981001
rfingers 7.12502
rthumb -9.7422 -28.7737
lclavicle 5.01931e-015 5.56597e-015
lhumerus -39.8837 18.0702 79.69
lradius 19.7603
lwrist -41.9086
lhand -32.6002 2.77851
lfingers 7.12502
lthumb -5.8282 32.6784
rfemur -8.89392 -18.6114 21.1531
rtibia 11.5724
rfoot -9.58992 12.6178
rtoes -5.56597e-014
lfemur -15.429 19.7381 -19.0016
ltibia 14.7604
lfoot -2.03783 -20.2502
ltoes -4.45278e-014
560
root -13.8364 16.7358 5.01153 -320.853 93.0754 -330.233
lowerback -11.6887 -1.26633 2.17977
upperback -4.79011 -1.69833 -0.705572
thorax 1.4571 -0.793006 -2.17128
lowerneck -8.93703 -13.3105 -8.07915
upperneck 5.10775 40.7274 5.60767
head 165.738 58.9762 -39.0366
rclavicle 2.00524e-014 -4.37326e-015
rhumerus -38.0307 -28.3862 -79.799
rradius 16.2509
rwrist 23.9305
rhand -36.5839 1.00026
rfingers 7.12502
rthumb -9.67323 -28.7576
lclavicle 2.00524e-014 -4.37326e-015
lhumerus -39.8727 18.2269 79.5714
lradius 19.7051
lwrist -42.2168
lhand -32.6309 2.72517
lfingers 7.12502
lthumb -5.85788 32.6242
rfemur -8.91469 -18.5781 21.1851
rtibia 11.5941
rfoot -9.56609 12.5797
rtoes 3.33958e-014
lfemur -15.4369 19.761 -18.9776
ltibia 14.7516
lfoot -2.03504 -20.2963
ltoes 1.59028e-014
